<?xml version="1.0" encoding="UTF-8"?>
<!DOCTYPE svg PUBLIC "-//W3C//DTD SVG 1.1//EN" "http://www.w3.org/Graphics/SVG/1.1/DTD/svg11.dtd">
<svg xmlns="http://www.w3.org/2000/svg" version="1.1" width="50px" height="50px" style="shape-rendering:geometricPrecision; text-rendering:geometricPrecision; image-rendering:optimizeQuality; fill-rule:evenodd; clip-rule:evenodd" xmlns:xlink="http://www.w3.org/1999/xlink">
<g><path style="opacity:0.615" fill="#ffffff" d="M 17.5,1.5 C 41.1541,0.318958 50.6541,11.319 46,34.5C 38.7573,46.8068 28.2573,50.6402 14.5,46C 2.19317,38.7573 -1.64016,28.2573 3,14.5C 6.16246,8.16411 10.9958,3.83077 17.5,1.5 Z M 18.5,4.5 C 36.9488,3.44852 45.4488,12.1152 44,30.5C 38.1981,42.9824 28.6981,47.1491 15.5,43C 4.9871,36.4639 1.82043,27.2972 6,15.5C 9.1476,10.5094 13.3143,6.84275 18.5,4.5 Z M 22.5,12.5 C 25.2469,12.1866 27.9135,12.52 30.5,13.5C 28.604,14.4656 26.604,14.7989 24.5,14.5C 24.5,16.8333 24.5,19.1667 24.5,21.5C 26.1667,21.5 27.8333,21.5 29.5,21.5C 29.5,22.5 29.5,23.5 29.5,24.5C 27.8333,24.5 26.1667,24.5 24.5,24.5C 24.5,28.8333 24.5,33.1667 24.5,37.5C 23.1667,37.5 21.8333,37.5 20.5,37.5C 20.5,33.1667 20.5,28.8333 20.5,24.5C 19.5,24.5 18.5,24.5 17.5,24.5C 17.5,23.5 17.5,22.5 17.5,21.5C 18.5,21.5 19.5,21.5 20.5,21.5C 20.6997,18.3704 21.3664,15.3704 22.5,12.5 Z"/></g>
<g><path style="opacity:0.874" fill="#ffffff" d="M 21.5,9.5 C 24.8499,9.33499 28.1832,9.50166 31.5,10C 32.4231,12.0408 32.7564,14.2075 32.5,16.5C 24.703,17.949 24.703,18.949 32.5,19.5C 33.9064,24.9313 31.9064,27.2647 26.5,26.5C 26.5,30.8333 26.5,35.1667 26.5,39.5C 23.8333,39.5 21.1667,39.5 18.5,39.5C 18.5,35.1667 18.5,30.8333 18.5,26.5C 17.5,26.5 16.5,26.5 15.5,26.5C 15.5,24.1667 15.5,21.8333 15.5,19.5C 16.5,19.5 17.5,19.5 18.5,19.5C 17.8574,15.5669 18.8574,12.2336 21.5,9.5 Z M 22.5,12.5 C 21.3664,15.3704 20.6997,18.3704 20.5,21.5C 19.5,21.5 18.5,21.5 17.5,21.5C 17.5,22.5 17.5,23.5 17.5,24.5C 18.5,24.5 19.5,24.5 20.5,24.5C 20.5,28.8333 20.5,33.1667 20.5,37.5C 21.8333,37.5 23.1667,37.5 24.5,37.5C 24.5,33.1667 24.5,28.8333 24.5,24.5C 26.1667,24.5 27.8333,24.5 29.5,24.5C 29.5,23.5 29.5,22.5 29.5,21.5C 27.8333,21.5 26.1667,21.5 24.5,21.5C 24.5,19.1667 24.5,16.8333 24.5,14.5C 26.604,14.7989 28.604,14.4656 30.5,13.5C 27.9135,12.52 25.2469,12.1866 22.5,12.5 Z"/></g>
</svg>
