<?xml version="1.0" encoding="UTF-8"?>
<!DOCTYPE svg PUBLIC "-//W3C//DTD SVG 1.1//EN" "http://www.w3.org/Graphics/SVG/1.1/DTD/svg11.dtd">
<svg xmlns="http://www.w3.org/2000/svg" version="1.1" width="50px" height="50px" style="shape-rendering:geometricPrecision; text-rendering:geometricPrecision; image-rendering:optimizeQuality; fill-rule:evenodd; clip-rule:evenodd" xmlns:xlink="http://www.w3.org/1999/xlink">
<g><path style="opacity:0.772" fill="#ffffff" d="M 10.5,2.5 C 19.8393,2.33355 29.1726,2.50021 38.5,3C 42.3333,4.16667 44.8333,6.66667 46,10.5C 46.6667,19.8333 46.6667,29.1667 46,38.5C 44.8333,42.3333 42.3333,44.8333 38.5,46C 29.1667,46.6667 19.8333,46.6667 10.5,46C 6.66667,44.8333 4.16667,42.3333 3,38.5C 2.33333,29.1667 2.33333,19.8333 3,10.5C 4.35318,6.64987 6.85318,3.9832 10.5,2.5 Z M 15.5,4.5 C 21.5092,4.33385 27.5092,4.50051 33.5,5C 39.6667,5.83333 43.1667,9.33333 44,15.5C 49.1667,39.6667 39.6667,49.1667 15.5,44C 9.33333,43.1667 5.83333,39.6667 5,33.5C 3.89831,25.3092 4.56497,17.3092 7,9.5C 9.39784,6.89156 12.2312,5.2249 15.5,4.5 Z M 20.5,16.5 C 29.6571,15.4892 33.4904,19.4892 32,28.5C 27,33.8333 22,33.8333 17,28.5C 15.5934,23.6427 16.76,19.6427 20.5,16.5 Z"/></g>
<g><path style="opacity:0.766" fill="#ffffff" d="M 34.5,10.5 C 35.8333,10.5 37.1667,10.5 38.5,10.5C 38.5,11.8333 38.5,13.1667 38.5,14.5C 37.1667,14.5 35.8333,14.5 34.5,14.5C 34.5,13.1667 34.5,11.8333 34.5,10.5 Z"/></g>
<g><path style="opacity:0.623" fill="#ffffff" d="M 19.5,13.5 C 31.9901,11.8227 37.1568,17.156 35,29.5C 34.2155,31.286 33.0488,32.786 31.5,34C 18.0744,38.2377 12.2411,33.4043 14,19.5C 15.3597,16.9774 17.193,14.9774 19.5,13.5 Z M 20.5,16.5 C 16.76,19.6427 15.5934,23.6427 17,28.5C 22,33.8333 27,33.8333 32,28.5C 33.4904,19.4892 29.6571,15.4892 20.5,16.5 Z"/></g>
</svg>
